<?xml version="1.0" encoding="UTF-8"?>
<svg width="320" height="96" viewBox="0 0 320 96" xmlns="http://www.w3.org/2000/svg" role="img" aria-label="Company Logo">
  <defs>
    <linearGradient id="g" x1="0" y1="0" x2="1" y2="1">
      <stop offset="0" stop-color="#4f46e5"/>
      <stop offset="1" stop-color="#06b6d4"/>
    </linearGradient>
  </defs>
  <rect x="0" y="0" width="320" height="96" rx="20" fill="url(#g)"/>
  <g fill="#fff" opacity="0.95">
    <circle cx="56" cy="48" r="22"/>
    <path d="M56 20a28 28 0 0 1 0 56a28 28 0 0 0 0-56z" opacity="0.55"/>
    <path d="M103 30h176c9 0 16 7 16 16v4c0 9-7 16-16 16H103c-9 0-16-7-16-16v-4c0-9 7-16 16-16z" opacity="0.25"/>
  </g>
  <text x="120" y="56" font-family="Inter, system-ui, -apple-system, Segoe UI, Roboto, Arial" font-size="22" font-weight="700" fill="#ffffff">
    Your Company
  </text>
</svg>
